<svg xmlns="http://www.w3.org/2000/svg" viewBox="0 0 110 110"><defs><linearGradient id="a" x1="100%" x2="0%" y1="0%" y2="100%"><stop offset="0%" stop-color="#606611"/><stop offset="100%" stop-color="#0054B4"/></linearGradient></defs><g fill="none" fill-rule="evenodd"><path fill="url(#a)" d="M11.5 3.6C23.5 1.2 38 0 55 0s31.4 1.2 43.5 3.6a10 10 0 0 1 8 7.9c2.3 12 3.5 26.6 3.5 43.5s-1.2 31.4-3.6 43.5a10 10 0 0 1-7.9 8A229.8 229.8 0 0 1 55 110c-16.9 0-31.4-1.2-43.5-3.6a10 10 0 0 1-8-7.9A229.8 229.8 0 0 1 0 55c0-16.9 1.2-31.4 3.6-43.5a10 10 0 0 1 7.9-8Z"/><path fill="#FFF" fill-rule="nonzero" d="M33.9 39.3c4.8 0 6.5-2.3 6.5-5.2v-2.2c0-3-1.7-5.1-6.5-5.1-5 0-6.6 2.2-6.6 5.1v2.2c0 2.9 1.7 5.2 6.6 5.2Zm-17.7 43h34.4v-8.5H39.3V44.2h-23v8.5h12v21.1h-12v8.6Zm66.6 0h11V27.7h-11V51h-.5c-2-4.6-5.2-7.8-11.3-7.8-8.5 0-14.4 6.1-14.4 20 0 13.8 6 20 14.4 20 6.1 0 9.4-3.3 11.3-7.9h.5v7Zm-7.1-7.6c-4.9 0-7.7-3.1-7.7-8.5v-6c0-5.2 2.8-8.4 7.7-8.4 3.8 0 7.1 1.8 7.1 5.8V69c0 4-3.3 5.8-7.1 5.8Z"/></g></svg>
